<svg width="104" height="19" viewBox="0 0 104 19" fill="none" xmlns="http://www.w3.org/2000/svg">
<path d="M6.728 18.456C5.608 18.456 4.624 18.264 3.776 17.88C2.944 17.496 2.248 16.984 1.688 16.344C1.144 15.688 0.728 14.96 0.44 14.16C0.168 13.36 0.032 12.544 0.032 11.712V11.256C0.032 10.392 0.168 9.56 0.44 8.76C0.728 7.944 1.144 7.224 1.688 6.6C2.248 5.96 2.936 5.456 3.752 5.088C4.568 4.704 5.512 4.512 6.584 4.512C7.992 4.512 9.168 4.824 10.112 5.448C11.072 6.056 11.792 6.864 12.272 7.872C12.752 8.864 12.992 9.936 12.992 11.088V12.288H1.448V10.248H10.904L9.872 11.256C9.872 10.424 9.752 9.712 9.512 9.12C9.272 8.528 8.904 8.072 8.408 7.752C7.928 7.432 7.32 7.272 6.584 7.272C5.848 7.272 5.224 7.44 4.712 7.776C4.2 8.112 3.808 8.6 3.536 9.24C3.28 9.864 3.152 10.616 3.152 11.496C3.152 12.312 3.28 13.04 3.536 13.68C3.792 14.304 4.184 14.8 4.712 15.168C5.24 15.52 5.912 15.696 6.728 15.696C7.544 15.696 8.208 15.536 8.72 15.216C9.232 14.88 9.56 14.472 9.704 13.992H12.776C12.584 14.888 12.216 15.672 11.672 16.344C11.128 17.016 10.432 17.536 9.584 17.904C8.752 18.272 7.8 18.456 6.728 18.456ZM15.1068 12.72V9.792H24.8268V12.72H15.1068ZM30.5478 18L26.0838 0.48H29.6118L33.2358 15.72L32.2998 15.168H34.6998L33.6438 15.72L36.4998 1.152H39.4278L35.8758 18H30.5478ZM41.0118 18L37.1478 1.152H40.1958L43.4838 15.72L42.4518 15.168H44.8038L43.8918 15.72L47.0838 0.48H50.4198L46.4358 18H41.0118ZM60.4717 18V14.136H59.9197V9.84C59.9197 9.088 59.7357 8.528 59.3677 8.16C58.9997 7.792 58.4317 7.608 57.6637 7.608C57.2637 7.608 56.7837 7.616 56.2237 7.632C55.6637 7.648 55.0957 7.672 54.5197 7.704C53.9597 7.72 53.4557 7.744 53.0077 7.776V4.944C53.3757 4.912 53.7917 4.88 54.2557 4.848C54.7197 4.816 55.1917 4.8 55.6717 4.8C56.1677 4.784 56.6317 4.776 57.0637 4.776C58.4077 4.776 59.5197 4.952 60.3997 5.304C61.2957 5.656 61.9677 6.208 62.4157 6.96C62.8797 7.712 63.1117 8.696 63.1117 9.912V18H60.4717ZM56.2717 18.336C55.3277 18.336 54.4957 18.168 53.7757 17.832C53.0717 17.496 52.5197 17.016 52.1197 16.392C51.7357 15.768 51.5437 15.016 51.5437 14.136C51.5437 13.176 51.7757 12.392 52.2397 11.784C52.7197 11.176 53.3837 10.72 54.2317 10.416C55.0957 10.112 56.1037 9.96 57.2557 9.96H60.2797V11.952H57.2077C56.4397 11.952 55.8477 12.144 55.4317 12.528C55.0317 12.896 54.8317 13.376 54.8317 13.968C54.8317 14.56 55.0317 15.04 55.4317 15.408C55.8477 15.776 56.4397 15.96 57.2077 15.96C57.6717 15.96 58.0957 15.88 58.4797 15.72C58.8797 15.544 59.2077 15.256 59.4637 14.856C59.7357 14.44 59.8877 13.88 59.9197 13.176L60.7357 14.112C60.6557 15.024 60.4317 15.792 60.0637 16.416C59.7117 17.04 59.2157 17.52 58.5757 17.856C57.9517 18.176 57.1837 18.336 56.2717 18.336ZM66.8531 18V0.48H70.1891V18H66.8531ZM65.2211 2.976V0.48H70.1891V2.976H65.2211ZM74.1656 18V0.48H77.5016V18H74.1656ZM72.5336 2.976V0.48H77.5016V2.976H72.5336ZM87.1421 18.456C86.0221 18.456 85.0381 18.264 84.1901 17.88C83.3581 17.496 82.6621 16.984 82.1021 16.344C81.5581 15.688 81.1421 14.96 80.8541 14.16C80.5821 13.36 80.4461 12.544 80.4461 11.712V11.256C80.4461 10.392 80.5821 9.56 80.8541 8.76C81.1421 7.944 81.5581 7.224 82.1021 6.6C82.6621 5.96 83.3501 5.456 84.1661 5.088C84.9821 4.704 85.9261 4.512 86.9981 4.512C88.4061 4.512 89.5821 4.824 90.5261 5.448C91.4861 6.056 92.2061 6.864 92.6861 7.872C93.1661 8.864 93.4061 9.936 93.4061 11.088V12.288H81.8621V10.248H91.3181L90.2861 11.256C90.2861 10.424 90.1661 9.712 89.9261 9.12C89.6861 8.528 89.3181 8.072 88.8221 7.752C88.3421 7.432 87.7341 7.272 86.9981 7.272C86.2621 7.272 85.6381 7.44 85.1261 7.776C84.6141 8.112 84.2221 8.6 83.9501 9.24C83.6941 9.864 83.5661 10.616 83.5661 11.496C83.5661 12.312 83.6941 13.04 83.9501 13.68C84.2061 14.304 84.5981 14.8 85.1261 15.168C85.6541 15.52 86.3261 15.696 87.1421 15.696C87.9581 15.696 88.6221 15.536 89.1341 15.216C89.6461 14.88 89.9741 14.472 90.1181 13.992H93.1901C92.9981 14.888 92.6301 15.672 92.0861 16.344C91.5421 17.016 90.8461 17.536 89.9981 17.904C89.1661 18.272 88.2141 18.456 87.1421 18.456ZM101.857 18.168C100.657 18.168 99.6649 18.016 98.8809 17.712C98.1129 17.392 97.5369 16.864 97.1529 16.128C96.7689 15.376 96.5769 14.368 96.5769 13.104L96.6009 1.296H99.7209L99.6969 13.32C99.6969 13.96 99.8649 14.456 100.201 14.808C100.553 15.144 101.049 15.312 101.689 15.312H103.729V18.168H101.857ZM94.5129 7.416V4.968H103.729V7.416H94.5129Z" fill="white"/>
</svg>
